<svg xmlns="http://www.w3.org/2000/svg" xmlns:xlink="http://www.w3.org/1999/xlink" width="2000" zoomAndPan="magnify" viewBox="0 0 1500 1499.999933" height="2000" preserveAspectRatio="xMidYMid meet" version="1.0"><defs><g/><clipPath id="19125affe1"><rect x="0" width="1406" y="0" height="1282"/></clipPath></defs><rect x="-150" width="1800" fill="#ffffff" y="-149.999993" height="1799.99992" fill-opacity="1"/><rect x="-150" width="1800" fill="#01adee" y="-149.999993" height="1799.99992" fill-opacity="1"/><g transform="matrix(1, 0, 0, 1, 27, 218)"><g clip-path="url(#19125affe1)"><g fill="#fcfbfa" fill-opacity="1"><g transform="translate(0.144534, 1049.736106)"><g><path d="M 381.375 12.765625 C 313.289062 12.765625 250.257812 -5.050781 192.28125 -40.6875 C 134.300781 -76.320312 89.890625 -122.332031 59.046875 -178.71875 C 49.460938 -195.738281 46.53125 -213.023438 50.25 -230.578125 C 53.976562 -248.128906 64.882812 -261.691406 82.96875 -271.265625 C 99.988281 -280.835938 117.539062 -283.226562 135.625 -278.4375 C 153.71875 -273.65625 167.019531 -262.753906 175.53125 -245.734375 C 184.039062 -229.773438 196.804688 -211.691406 213.828125 -191.484375 C 230.847656 -171.273438 253.71875 -153.988281 282.4375 -139.625 C 311.15625 -125.257812 345.726562 -118.078125 386.15625 -118.078125 C 448.914062 -118.078125 499.441406 -137.753906 537.734375 -177.109375 C 576.035156 -216.472656 595.1875 -264.878906 595.1875 -322.328125 L 595.1875 -352.640625 C 595.1875 -415.410156 574.707031 -460.890625 533.75 -489.078125 C 492.800781 -517.265625 431.898438 -531.359375 351.046875 -531.359375 L 151.59375 -531.359375 C 133.507812 -531.359375 118.347656 -537.738281 106.109375 -550.5 C 93.878906 -563.269531 87.234375 -578.695312 86.171875 -596.78125 L 84.578125 -947.84375 C 84.578125 -969.113281 92.019531 -985.597656 106.90625 -997.296875 C 121.800781 -1009.003906 138.820312 -1014.859375 157.96875 -1014.859375 L 615.9375 -1014.859375 C 634.019531 -1014.859375 649.707031 -1007.941406 663 -994.109375 C 676.300781 -980.285156 682.953125 -964.332031 682.953125 -946.25 C 682.953125 -927.09375 676.300781 -911.394531 663 -899.15625 C 649.707031 -886.925781 634.019531 -880.8125 615.9375 -880.8125 L 220.203125 -880.8125 L 220.203125 -662.203125 L 381.375 -662.203125 C 447.320312 -662.203125 506.625 -651.5625 559.28125 -630.28125 C 611.945312 -609.007812 653.4375 -576.300781 683.75 -532.15625 C 714.070312 -488.007812 729.234375 -431.363281 729.234375 -362.21875 L 729.234375 -325.515625 C 729.234375 -258.492188 714.070312 -199.71875 683.75 -149.1875 C 653.4375 -98.664062 612.210938 -59.039062 560.078125 -30.3125 C 507.953125 -1.59375 448.382812 12.765625 381.375 12.765625 Z M 381.375 12.765625 "/></g></g></g><g fill="#fcfbfa" fill-opacity="1"><g transform="translate(681.504183, 1049.736106)"><g><path d="M 636.671875 0 L 124.46875 0 C 104.25 0 87.488281 -7.175781 74.1875 -21.53125 C 60.894531 -35.894531 54.25 -52.65625 54.25 -71.8125 C 54.25 -90.957031 60.632812 -106.910156 73.40625 -119.671875 L 443.59375 -536.15625 C 472.320312 -568.0625 495.726562 -599.171875 513.8125 -629.484375 C 531.894531 -659.804688 540.9375 -694.648438 540.9375 -734.015625 L 540.9375 -746.78125 C 540.9375 -786.144531 526.835938 -820.1875 498.640625 -848.90625 C 470.453125 -877.625 432.957031 -891.984375 386.15625 -891.984375 C 351.050781 -891.984375 321.265625 -885.066406 296.796875 -871.234375 C 272.328125 -857.410156 252.910156 -840.390625 238.546875 -820.171875 C 224.191406 -799.960938 213.820312 -780.285156 207.4375 -761.140625 C 204.25 -755.828125 198.664062 -750.242188 190.6875 -744.390625 C 182.707031 -738.535156 172.867188 -735.609375 161.171875 -735.609375 C 145.210938 -735.609375 130.050781 -740.660156 115.6875 -750.765625 C 101.320312 -760.878906 94.140625 -776.039062 94.140625 -796.25 C 94.140625 -804.757812 94.9375 -813.003906 96.53125 -820.984375 C 98.132812 -828.960938 102.125 -838.269531 108.5 -848.90625 C 118.082031 -872.3125 134.304688 -897.84375 157.171875 -925.5 C 180.046875 -953.15625 210.894531 -977.085938 249.71875 -997.296875 C 288.550781 -1017.515625 336.691406 -1027.625 394.140625 -1027.625 C 448.390625 -1027.625 496.789062 -1015.921875 539.34375 -992.515625 C 581.894531 -969.109375 615.40625 -937.191406 639.875 -896.765625 C 664.34375 -856.347656 676.578125 -809.546875 676.578125 -756.359375 L 676.578125 -735.609375 C 676.578125 -683.484375 665.140625 -634.816406 642.265625 -589.609375 C 619.390625 -544.398438 584.550781 -496.265625 537.75 -445.203125 L 263.28125 -137.234375 L 636.671875 -137.234375 C 655.828125 -137.234375 672.316406 -131.113281 686.140625 -118.875 C 699.972656 -106.644531 706.890625 -90.421875 706.890625 -70.203125 C 706.890625 -51.054688 699.972656 -34.566406 686.140625 -20.734375 C 672.316406 -6.910156 655.828125 0 636.671875 0 Z M 636.671875 0 "/></g></g></g></g></g></svg>